<svg width="633" height="793" viewBox="0 0 633 793" fill="none" xmlns="http://www.w3.org/2000/svg">
<path d="M174.2 191.032C69.3937 264.535 0 384.34 0 512.506C0 667.397 114.617 792.951 256.011 792.951C397.378 792.951 511.995 667.397 511.995 512.509C511.995 392.79 443.496 290.533 347.173 250.342C328.624 242.621 288.382 228.732 256.24 231.697C210.327 263.675 154.398 329.381 127.903 394.857C167.301 343.086 228.749 320.541 283.196 330.127C363.371 344.374 424.64 420.602 424.64 512.478C424.64 614.534 349.14 697.243 256.011 697.243C204.681 697.243 158.691 672.13 127.775 632.516C81.9898 573.917 70.2113 510.372 79.4604 448.299C111.909 230.949 347.428 107.05 522.548 59.5037C465.392 92.63 362.298 147.081 290.196 206.358C500.524 295.305 534.531 101.117 633 14.2188C533.917 -28.1056 174.762 -43.7328 174.2 191.032Z" fill="white" fill-opacity="0.05"/>
</svg>
