<svg width="91" height="26" viewBox="0 0 91 26" fill="none" xmlns="http://www.w3.org/2000/svg">
<g clip-path="url(#clip0_904_2093)">
<path d="M75.1436 15.7788C72.2564 17.5295 70.053 18.8823 67.9256 20.1555C67.1658 20.633 66.406 21.0309 65.7222 21.5879C64.7344 22.3041 63.3668 23.0999 64.1266 24.6119C64.8864 26.0442 66.33 25.4076 67.3937 25.0097C68.5334 24.6914 69.6731 24.0548 70.7368 23.4978C75.6755 21.0309 80.6141 18.4844 85.4768 15.938C86.7684 15.2218 88.1361 14.5851 89.2758 13.6302C91.7071 11.7204 91.5551 9.81052 88.8959 8.37814C85.3248 6.46829 81.6778 4.71759 78.0308 2.96689C76.5112 2.17112 74.9157 1.37535 73.3201 0.818316C72.4083 0.500007 71.3446 0.579577 70.3569 0.5C70.053 2.72816 71.2686 3.20562 72.3324 3.76266C74.9916 5.27463 77.7269 6.70702 80.3862 8.21898C81.2979 8.77602 82.2857 9.33306 83.1974 10.6063C81.8298 10.7654 80.5381 11.0042 79.1705 11.0838C68.9133 11.6408 58.7321 12.1978 48.4748 12.7549C33.5829 13.5506 18.7669 14.3464 3.87495 15.2218C2.65928 15.3013 1.4436 15.7788 0 16.1767C1.36763 18.3253 2.9632 17.8478 4.25484 17.7682C11.5489 17.6091 18.9189 17.2908 26.2129 17.052C41.9406 16.495 57.6683 15.938 73.3961 15.3809C73.776 15.4605 74.0039 15.5401 75.1436 15.7788Z" fill="#8BC67C"/>
</g>
<defs>
<clipPath id="clip0_904_2093">
<rect width="91" height="25" fill="white" transform="matrix(-1 0 0 1 91 0.5)"/>
</clipPath>
</defs>
</svg>
