<svg width="1440" height="870" viewBox="0 0 1440 870" fill="none" xmlns="http://www.w3.org/2000/svg">
<path d="M71.9843 0V66.8461M71.9843 0H0V66.8461M71.9843 0H143.969M71.9843 66.8461L71.9843 133.692M71.9843 66.8461H0M71.9843 66.8461L143.969 66.8462M71.9843 133.692V200.538M71.9843 133.692H0M71.9843 133.692L143.969 133.692M71.9843 200.538L71.9843 267.385M71.9843 200.538H0M71.9843 200.538H143.969M71.9843 267.385V334.231M71.9843 267.385H0M71.9843 267.385H143.969M71.9843 334.231V401.077M71.9843 334.231H0M71.9843 334.231H143.969M71.9843 401.077L71.9843 467.923M71.9843 401.077H0M71.9843 401.077H143.969M71.9843 467.923V534.769M71.9843 467.923H0M71.9843 467.923H143.968M71.9843 534.769V601.615M71.9843 534.769H0M71.9843 534.769H143.968M71.9843 601.615L71.9842 668.461M71.9843 601.615H0M71.9843 601.615H143.968M71.9842 668.461V735.308M71.9842 668.461H0M71.9842 668.461H143.968M71.9842 735.308L71.9842 802.154M71.9842 735.308H0M71.9842 735.308H143.968M71.9842 802.154V869M71.9842 802.154H0M71.9842 802.154H143.968M71.9842 869L0 869V802.154M71.9842 869H143.968M0 66.8461V133.692M0 133.692V200.538M0 200.538V267.385M0 267.385V334.231M0 334.231V401.077M0 401.077V467.923M0 467.923V534.769M0 534.769V601.615M0 601.615V668.461M0 668.461V735.308M0 735.308V802.154M143.969 0V66.8462M143.969 0H215.953M143.969 66.8462V133.692M143.969 66.8462H215.953M143.969 133.692L143.969 200.538M143.969 133.692H215.953M143.969 200.538V267.385M143.969 200.538L215.953 200.538M143.969 267.385V334.231M143.969 267.385H215.953M143.969 334.231V401.077M143.969 334.231H215.953M143.969 401.077L143.968 467.923M143.969 401.077H215.953M143.968 467.923V534.769M143.968 467.923H215.953M143.968 534.769V601.615M143.968 534.769H215.953M143.968 601.615V668.461M143.968 601.615H215.953M143.968 668.461L143.968 735.308M143.968 668.461H215.953M143.968 735.308V802.154M143.968 735.308H215.953M143.968 802.154V869M143.968 802.154H215.953M143.968 869H215.953M215.953 0V66.8462M215.953 0H287.937M215.953 66.8462V133.692M215.953 66.8462L287.937 66.8462M215.953 133.692L215.953 200.538M215.953 133.692H287.937M215.953 200.538V267.385M215.953 200.538H287.937M215.953 267.385V334.231M215.953 267.385L287.937 267.385M215.953 334.231V401.077M215.953 334.231L287.937 334.231M215.953 401.077L215.953 467.923M215.953 401.077H287.937M215.953 467.923V534.769M215.953 467.923H287.937M215.953 534.769V601.615M215.953 534.769H287.937M215.953 601.615V668.461M215.953 601.615H287.937M215.953 668.461L215.953 735.308M215.953 668.461H287.937M215.953 735.308V802.154M215.953 735.308H287.937M215.953 802.154V869M215.953 802.154H287.937M215.953 869H287.937M287.937 0V66.8462M287.937 0H359.921M287.937 66.8462V133.692M287.937 66.8462H359.921M287.937 133.692V200.538M287.937 133.692L359.921 133.692M287.937 200.538V267.385M287.937 200.538H359.921M287.937 267.385V334.231M287.937 267.385H359.921M287.937 334.231V401.077M287.937 334.231H359.921M287.937 401.077L287.937 467.923M287.937 401.077H359.921M287.937 467.923V534.769M287.937 467.923H359.921M287.937 534.769V601.615M287.937 534.769H359.921M287.937 601.615V668.461M287.937 601.615H359.921M287.937 668.461V735.308M287.937 668.461H359.921M287.937 735.308V802.154M287.937 735.308H359.921M287.937 802.154V869M287.937 802.154H359.921M287.937 869H359.921M503.89 0V66.8462M503.89 0H431.905M503.89 0H575.874M503.89 66.8462V133.692M503.89 66.8462H431.905M503.89 66.8462L575.874 66.8462M503.89 133.692V200.538M503.89 133.692H431.905M503.89 133.692H575.874M503.89 200.538V267.385M503.89 200.538L431.905 200.538M503.89 200.538H575.874M503.89 267.385V334.231M503.89 267.385H431.905M503.89 267.385H575.874M503.89 334.231V401.077M503.89 334.231H431.905M503.89 334.231H575.874M503.89 401.077L503.89 467.923M503.89 401.077L431.905 401.077M503.89 401.077H575.874M503.89 467.923V534.769M503.89 467.923L431.905 467.923M503.89 467.923H575.874M503.89 534.769V601.615M503.89 534.769L431.905 534.769M503.89 534.769H575.874M503.89 601.615V668.461M503.89 601.615H431.905M503.89 601.615H575.874M503.89 668.461V735.308M503.89 668.461L431.905 668.461M503.89 668.461H575.874M503.89 735.308V802.154M503.89 735.308L431.905 735.308M503.89 735.308H575.874M503.89 802.154V869M503.89 802.154L431.905 802.154M503.89 802.154H575.874M503.89 869H431.905M503.89 869H575.874M719.842 0V66.8462M719.842 0H647.858M719.842 0H791.827M719.842 66.8462V133.692M719.842 66.8462L647.858 66.8462M719.842 66.8462H791.827M719.842 133.692V200.538M719.842 133.692H647.858M719.842 133.692H791.827M719.842 200.538V267.385M719.842 200.538H647.858M719.842 200.538L791.827 200.538M719.842 267.385V334.231M719.842 267.385L647.858 267.385M719.842 267.385H791.827M719.842 334.231V401.077M719.842 334.231L647.858 334.231M719.842 334.231H791.827M719.842 401.077L719.842 467.923M719.842 401.077H647.858M719.842 401.077H791.827M719.842 467.923V534.769M719.842 467.923H647.858M719.842 467.923H791.827M719.842 534.769V601.615M719.842 534.769H647.858M719.842 534.769H791.827M719.842 601.615V668.461M719.842 601.615H647.858M719.842 601.615H791.827M719.842 668.461V735.308M719.842 668.461H647.858M719.842 668.461H791.827M719.842 735.308V802.154M719.842 735.308H647.858M719.842 735.308H791.827M719.842 802.154V869M719.842 802.154H647.858M719.842 802.154H791.827M719.842 869H647.858M719.842 869H791.827M359.921 0V66.8462M359.921 0H431.905M359.921 66.8462V133.692M359.921 66.8462L431.905 66.8462M359.921 133.692V200.538M359.921 133.692H431.905M359.921 200.538V267.385M359.921 200.538H431.905M359.921 267.385V334.231M359.921 267.385H431.905M359.921 334.231V401.077M359.921 334.231H431.905M359.921 401.077L359.921 467.923M359.921 401.077H431.905M359.921 467.923V534.769M359.921 467.923H431.905M359.921 534.769V601.615M359.921 534.769H431.905M359.921 601.615V668.461M359.921 601.615H431.905M359.921 668.461V735.308M359.921 668.461H431.905M359.921 735.308V802.154M359.921 735.308H431.905M359.921 802.154V869M359.921 802.154H431.905M359.921 869H431.905M575.874 0V66.8462M575.874 0H647.858M575.874 66.8462V133.692M575.874 66.8462H647.858M575.874 133.692V200.538M575.874 133.692L647.858 133.692M575.874 200.538V267.385M575.874 200.538H647.858M575.874 267.385V334.231M575.874 267.385H647.858M575.874 334.231V401.077M575.874 334.231H647.858M575.874 401.077L575.874 467.923M575.874 401.077H647.858M575.874 467.923V534.769M575.874 467.923H647.858M575.874 534.769V601.615M575.874 534.769H647.858M575.874 601.615V668.461M575.874 601.615H647.858M575.874 668.461V735.308M575.874 668.461H647.858M575.874 735.308V802.154M575.874 735.308H647.858M575.874 802.154V869M575.874 802.154H647.858M575.874 869H647.858M791.827 0V66.8462M791.827 0H863.811M791.827 66.8462V133.692M791.827 66.8462L863.811 66.8462M791.827 133.692V200.538M791.827 133.692L863.811 133.692M791.827 200.538V267.385M791.827 200.538H863.811M791.827 267.385V334.231M791.827 267.385H863.811M791.827 334.231V401.077M791.827 334.231H863.811M791.827 401.077V467.923M791.827 401.077H863.811M791.827 467.923V534.769M791.827 467.923H863.811M791.827 534.769V601.615M791.827 534.769H863.811M791.827 601.615V668.461M791.827 601.615H863.811M791.827 668.461V735.308M791.827 668.461H863.811M791.827 735.308V802.154M791.827 735.308H863.811M791.827 802.154V869M791.827 802.154H863.811M791.827 869H863.811M431.905 0V66.8462M431.905 66.8462V133.692M431.905 133.692V200.538M431.905 200.538L431.905 267.385M431.905 267.385V334.231M431.905 334.231V401.077M431.905 401.077V467.923M431.905 467.923V534.769M431.905 534.769V601.615M431.905 601.615L431.905 668.461M431.905 668.461V735.308M431.905 735.308V802.154M431.905 802.154V869M647.858 0V66.8462M647.858 66.8462V133.692M647.858 133.692V200.538M647.858 200.538V267.385M647.858 267.385V334.231M647.858 334.231V401.077M647.858 401.077V467.923M647.858 467.923V534.769M647.858 534.769V601.615M647.858 601.615V668.461M647.858 668.461V735.308M647.858 735.308V802.154M647.858 802.154V869M863.811 0V66.8462M863.811 0H935.795V869H863.811M863.811 66.8462V133.692M863.811 66.8462H935.794M863.811 133.692V200.538M863.811 133.692H935.794M863.811 200.538V267.385M863.811 200.538H935.794M863.811 267.385V334.231M863.811 267.385H935.794M863.811 334.231V401.077M863.811 334.231H935.794M863.811 401.077V467.923M863.811 401.077H935.794M863.811 467.923V534.769M863.811 467.923H935.794M863.811 534.769V601.615M863.811 534.769H935.794M863.811 601.615V668.461M863.811 601.615H935.794M863.811 668.461V735.308M863.811 668.461H935.794M863.811 735.308V802.154M863.811 735.308H935.794M863.811 802.154V869M863.811 802.154H935.794M576.189 0V66.8461M576.189 0H504.205V66.8461M576.189 0H648.173M576.189 66.8461V133.692M576.189 66.8461H504.205M576.189 66.8461L648.173 66.8462M576.189 133.692V200.538M576.189 133.692H504.205M576.189 133.692L648.173 133.692M576.189 200.538V267.385M576.189 200.538H504.205M576.189 200.538H648.173M576.189 267.385V334.231M576.189 267.385H504.205M576.189 267.385H648.173M576.189 334.231V401.077M576.189 334.231H504.205M576.189 334.231H648.173M576.189 401.077V467.923M576.189 401.077H504.205M576.189 401.077H648.173M576.189 467.923V534.769M576.189 467.923H504.205M576.189 467.923H648.173M576.189 534.769V601.615M576.189 534.769H504.205M576.189 534.769H648.173M576.189 601.615V668.461M576.189 601.615H504.205M576.189 601.615H648.173M576.189 668.461V735.308M576.189 668.461H504.205M576.189 668.461H648.173M576.189 735.308L576.189 802.154M576.189 735.308H504.205M576.189 735.308H648.173M576.189 802.154V869M576.189 802.154H504.205M576.189 802.154H648.173M576.189 869L504.205 869V802.154M576.189 869H648.173M504.205 66.8461V133.692M504.205 133.692V200.538M504.205 200.538V267.385M504.205 267.385V334.231M504.205 334.231V401.077M504.205 401.077V467.923M504.205 467.923V534.769M504.205 534.769V601.615M504.205 601.615V668.461M504.205 668.461V735.308M504.205 735.308V802.154M648.173 0V66.8462M648.173 0H720.158M648.173 66.8462V133.692M648.173 66.8462H720.158M648.173 133.692V200.538M648.173 133.692H720.158M648.173 200.538V267.385M648.173 200.538L720.158 200.538M648.173 267.385V334.231M648.173 267.385H720.158M648.173 334.231V401.077M648.173 334.231H720.158M648.173 401.077V467.923M648.173 401.077H720.158M648.173 467.923V534.769M648.173 467.923H720.158M648.173 534.769V601.615M648.173 534.769H720.158M648.173 601.615V668.461M648.173 601.615H720.158M648.173 668.461V735.308M648.173 668.461H720.158M648.173 735.308V802.154M648.173 735.308H720.158M648.173 802.154V869M648.173 802.154H720.158M648.173 869H720.158M720.158 0V66.8462M720.158 0H792.142M720.158 66.8462V133.692M720.158 66.8462L792.142 66.8462M720.158 133.692L720.158 200.538M720.158 133.692H792.142M720.158 200.538V267.385M720.158 200.538H792.142M720.158 267.385V334.231M720.158 267.385L792.142 267.385M720.158 334.231V401.077M720.158 334.231L792.142 334.231M720.158 401.077V467.923M720.158 401.077H792.142M720.158 467.923V534.769M720.158 467.923H792.142M720.158 534.769V601.615M720.158 534.769H792.142M720.158 601.615V668.461M720.158 601.615H792.142M720.158 668.461V735.308M720.158 668.461H792.142M720.158 735.308V802.154M720.158 735.308H792.142M720.158 802.154V869M720.158 802.154H792.142M720.158 869H792.142M792.142 0V66.8462M792.142 0H864.126M792.142 66.8462V133.692M792.142 66.8462H864.126M792.142 133.692V200.538M792.142 133.692L864.126 133.692M792.142 200.538V267.385M792.142 200.538H864.126M792.142 267.385V334.231M792.142 267.385H864.126M792.142 334.231V401.077M792.142 334.231H864.126M792.142 401.077L792.142 467.923M792.142 401.077H864.126M792.142 467.923V534.769M792.142 467.923H864.126M792.142 534.769V601.615M792.142 534.769H864.126M792.142 601.615V668.461M792.142 601.615H864.126M792.142 668.461V735.308M792.142 668.461H864.126M792.142 735.308V802.154M792.142 735.308H864.126M792.142 802.154V869M792.142 802.154H864.126M792.142 869H864.126M1008.09 0V66.8462M1008.09 0H936.11M1008.09 0H1080.08M1008.09 66.8462V133.692M1008.09 66.8462H936.11M1008.09 66.8462L1080.08 66.8462M1008.09 133.692V200.538M1008.09 133.692H936.11M1008.09 133.692H1080.08M1008.09 200.538V267.385M1008.09 200.538L936.11 200.538M1008.09 200.538H1080.08M1008.09 267.385V334.231M1008.09 267.385H936.11M1008.09 267.385H1080.08M1008.09 334.231V401.077M1008.09 334.231H936.11M1008.09 334.231H1080.08M1008.09 401.077V467.923M1008.09 401.077L936.11 401.077M1008.09 401.077H1080.08M1008.09 467.923V534.769M1008.09 467.923L936.11 467.923M1008.09 467.923H1080.08M1008.09 534.769V601.615M1008.09 534.769L936.11 534.769M1008.09 534.769H1080.08M1008.09 601.615V668.461M1008.09 601.615H936.11M1008.09 601.615H1080.08M1008.09 668.461V735.308M1008.09 668.461L936.11 668.461M1008.09 668.461H1080.08M1008.09 735.308V802.154M1008.09 735.308L936.11 735.308M1008.09 735.308H1080.08M1008.09 802.154V869M1008.09 802.154L936.11 802.154M1008.09 802.154H1080.08M1008.09 869H936.11M1008.09 869H1080.08M1224.05 0V66.8462M1224.05 0H1152.06M1224.05 0H1296.03M1224.05 66.8462V133.692M1224.05 66.8462L1152.06 66.8462M1224.05 66.8462H1296.03M1224.05 133.692V200.538M1224.05 133.692H1152.06M1224.05 133.692H1296.03M1224.05 200.538V267.385M1224.05 200.538H1152.06M1224.05 200.538L1296.03 200.538M1224.05 267.385V334.231M1224.05 267.385L1152.06 267.385M1224.05 267.385H1296.03M1224.05 334.231V401.077M1224.05 334.231L1152.06 334.231M1224.05 334.231H1296.03M1224.05 401.077L1224.05 467.923M1224.05 401.077H1152.06M1224.05 401.077H1296.03M1224.05 467.923V534.769M1224.05 467.923H1152.06M1224.05 467.923H1296.03M1224.05 534.769V601.615M1224.05 534.769H1152.06M1224.05 534.769H1296.03M1224.05 601.615V668.461M1224.05 601.615H1152.06M1224.05 601.615H1296.03M1224.05 668.461V735.308M1224.05 668.461H1152.06M1224.05 668.461H1296.03M1224.05 735.308V802.154M1224.05 735.308H1152.06M1224.05 735.308H1296.03M1224.05 802.154V869M1224.05 802.154H1152.06M1224.05 802.154H1296.03M1224.05 869H1152.06M1224.05 869H1296.03M864.126 0V66.8462M864.126 0H936.11M864.126 66.8462V133.692M864.126 66.8462L936.11 66.8462M864.126 133.692V200.538M864.126 133.692H936.11M864.126 200.538V267.385M864.126 200.538H936.11M864.126 267.385V334.231M864.126 267.385H936.11M864.126 334.231V401.077M864.126 334.231H936.11M864.126 401.077V467.923M864.126 401.077H936.11M864.126 467.923V534.769M864.126 467.923H936.11M864.126 534.769V601.615M864.126 534.769H936.11M864.126 601.615V668.461M864.126 601.615H936.11M864.126 668.461V735.308M864.126 668.461H936.11M864.126 735.308V802.154M864.126 735.308H936.11M864.126 802.154V869M864.126 802.154H936.11M864.126 869H936.11M1080.08 0V66.8462M1080.08 0H1152.06M1080.08 66.8462V133.692M1080.08 66.8462H1152.06M1080.08 133.692V200.538M1080.08 133.692L1152.06 133.692M1080.08 200.538V267.385M1080.08 200.538H1152.06M1080.08 267.385V334.231M1080.08 267.385H1152.06M1080.08 334.231V401.077M1080.08 334.231H1152.06M1080.08 401.077V467.923M1080.08 401.077H1152.06M1080.08 467.923V534.769M1080.08 467.923H1152.06M1080.08 534.769V601.615M1080.08 534.769H1152.06M1080.08 601.615V668.461M1080.08 601.615H1152.06M1080.08 668.461V735.308M1080.08 668.461H1152.06M1080.08 735.308V802.154M1080.08 735.308H1152.06M1080.08 802.154V869M1080.08 802.154H1152.06M1080.08 869H1152.06M1296.03 0V66.8462M1296.03 0H1368.02M1296.03 66.8462V133.692M1296.03 66.8462L1368.02 66.8462M1296.03 133.692V200.538M1296.03 133.692L1368.02 133.692M1296.03 200.538V267.385M1296.03 200.538H1368.02M1296.03 267.385V334.231M1296.03 267.385H1368.02M1296.03 334.231V401.077M1296.03 334.231H1368.02M1296.03 401.077V467.923M1296.03 401.077H1368.02M1296.03 467.923V534.769M1296.03 467.923H1368.02M1296.03 534.769V601.615M1296.03 534.769H1368.02M1296.03 601.615V668.461M1296.03 601.615H1368.02M1296.03 668.461V735.308M1296.03 668.461H1368.02M1296.03 735.308V802.154M1296.03 735.308H1368.02M1296.03 802.154V869M1296.03 802.154H1368.02M1296.03 869H1368.02M936.11 0V66.8462M936.11 66.8462V133.692M936.11 133.692V200.538M936.11 200.538V267.385M936.11 267.385V334.231M936.11 334.231V401.077M936.11 401.077V467.923M936.11 467.923V534.769M936.11 534.769V601.615M936.11 601.615L936.11 668.461M936.11 668.461V735.308M936.11 735.308V802.154M936.11 802.154V869M1152.06 0V66.8462M1152.06 66.8462V133.692M1152.06 133.692V200.538M1152.06 200.538V267.385M1152.06 267.385V334.231M1152.06 334.231V401.077M1152.06 401.077V467.923M1152.06 467.923V534.769M1152.06 534.769V601.615M1152.06 601.615V668.461M1152.06 668.461V735.308M1152.06 735.308V802.154M1152.06 802.154V869M1368.02 0V66.8462M1368.02 0H1440V869H1368.02M1368.02 66.8462V133.692M1368.02 66.8462H1440M1368.02 133.692V200.538M1368.02 133.692H1440M1368.02 200.538V267.385M1368.02 200.538H1440M1368.02 267.385V334.231M1368.02 267.385H1440M1368.02 334.231V401.077M1368.02 334.231H1440M1368.02 401.077V467.923M1368.02 401.077H1440M1368.02 467.923V534.769M1368.02 467.923H1440M1368.02 534.769V601.615M1368.02 534.769H1440M1368.02 601.615V668.461M1368.02 601.615H1440M1368.02 668.461V735.308M1368.02 668.461H1440M1368.02 735.308V802.154M1368.02 735.308H1440M1368.02 802.154V869M1368.02 802.154H1440" stroke="url(#paint0_linear_442_806)"/>
<defs>
<linearGradient id="paint0_linear_442_806" x1="594.5" y1="-117" x2="820.678" y2="826.577" gradientUnits="userSpaceOnUse">
<stop stop-color="white" stop-opacity="0.09"/>
<stop offset="1" stop-color="white" stop-opacity="0"/>
</linearGradient>
</defs>
</svg>
