<svg width="120" height="30" viewBox="0 0 120 30" fill="none" xmlns="http://www.w3.org/2000/svg">
<g clip-path="url(#clip0_2532_464)">
<path d="M4.41507 27.5227L0 10.188H3.48934L7.07362 25.2668L6.14787 24.7207H8.52157L7.47715 25.2668L10.3018 10.8529H13.1977L9.68473 27.5227H4.41507ZM14.7644 27.5227L10.9427 10.8529H13.9574L17.2093 25.2668L16.1886 24.7207H18.5148L17.6128 25.2668L20.7698 10.188H24.0693L20.1289 27.5227H14.7644Z" fill="white"/>
<path d="M25.6963 27.5227V10.188H28.9957V27.5227H25.6963ZM28.521 27.5227V24.6732H36.3779V27.5227H28.521ZM28.521 20.1377V17.2881H35.7607V20.1377H28.521ZM28.521 13.0376V10.188H36.188V13.0376H28.521Z" fill="white"/>
<path d="M41.5923 27.6416V24.9345H45.9362C46.7274 24.9345 47.3288 24.7207 47.7402 24.2933C48.1517 23.85 48.3573 23.2485 48.3573 22.4886C48.3573 21.7287 48.1517 21.143 47.7402 20.7314C47.3288 20.3039 46.7274 20.0902 45.9362 20.0902H41.5923V18.0243H45.6989C46.854 18.0243 47.8826 18.1668 48.7846 18.4517C49.7025 18.7208 50.4146 19.1799 50.9209 19.829C51.4431 20.4781 51.7043 21.3487 51.7043 22.4411V22.7736C51.7043 23.8026 51.4748 24.6812 51.0159 25.4094C50.5728 26.1217 49.9002 26.6758 48.9982 27.0716C48.112 27.4516 47.0122 27.6416 45.6989 27.6416H41.5923ZM38.7676 27.6416V10.0693H42.067V27.6416H38.7676ZM41.5923 19.5441V17.4782H45.2953C46.1023 17.4782 46.6958 17.2645 47.0756 16.837C47.4553 16.4096 47.6452 15.8396 47.6452 15.1273C47.6452 14.4149 47.4553 13.845 47.0756 13.4176C46.6958 12.9901 46.1023 12.7764 45.2953 12.7764H41.5923V10.0693H44.9867C46.9489 10.0693 48.4365 10.4809 49.4492 11.3041C50.4779 12.1274 50.9921 13.3067 50.9921 14.8423V15.1747C50.9921 16.2513 50.731 17.114 50.2089 17.7631C49.7025 18.3964 48.9982 18.8555 48.0962 19.1404C47.1942 19.4095 46.1578 19.5441 44.9867 19.5441H41.5923Z" fill="white"/>
<path d="M58.5757 27.9738C57.2464 27.9738 56.0992 27.7206 55.1338 27.214C54.1843 26.7074 53.4564 26.0346 52.95 25.1956C52.4436 24.3407 52.1904 23.3908 52.1904 22.346H55.4424C55.4424 23.1851 55.7193 23.8658 56.2732 24.3882C56.8429 24.8948 57.6103 25.1481 58.5757 25.1481C59.2245 25.1481 59.7783 25.0294 60.2372 24.7919C60.712 24.5386 61.076 24.1982 61.3292 23.7708C61.5823 23.3276 61.709 22.8209 61.709 22.251C61.709 21.3962 61.4321 20.6997 60.8782 20.1614C60.3243 19.6073 59.5647 19.3303 58.5994 19.3303C58.1247 19.3303 57.7053 19.3936 57.3413 19.5202C56.9932 19.6469 56.6846 19.8131 56.4156 20.0189L54.8727 17.3593L60.5696 13.4649L60.356 13.0613H52.9025V10.188H64.2251V13.6549L58.3621 17.5493L56.5343 17.2168C56.835 17.1218 57.1593 17.0507 57.5075 17.0031C57.8556 16.9398 58.2354 16.9082 58.6469 16.9082C59.9603 16.9082 61.0839 17.1377 62.0175 17.5968C62.967 18.04 63.695 18.6575 64.2013 19.449C64.7077 20.2406 64.9609 21.1508 64.9609 22.1798V22.4885C64.9609 23.4858 64.7077 24.404 64.2013 25.2431C63.695 26.0663 62.967 26.7312 62.0175 27.2377C61.0681 27.7285 59.9208 27.9738 58.5757 27.9738Z" fill="white"/>
<path d="M67.2393 27.5227V10.188H70.5386V27.5227H67.2393ZM70.0639 27.5227V24.6732H77.9209V27.5227H70.0639ZM70.0639 20.1377V17.2881H77.3037V20.1377H70.0639ZM70.0639 13.0376V10.188H77.731V13.0376H70.0639Z" fill="white"/>
<path d="M87.9581 27.9735C86.3915 27.9735 85.0464 27.6965 83.9228 27.1424C82.7993 26.5883 81.8815 25.868 81.1693 24.9815C80.473 24.0949 79.9587 23.1293 79.6265 22.0845C79.2941 21.0397 79.1279 20.0344 79.1279 19.0687V18.5463C79.1279 17.4698 79.2941 16.4091 79.6265 15.3643C79.9746 14.3195 80.5047 13.3697 81.2168 12.5148C81.9289 11.6599 82.8309 10.9792 83.9228 10.4726C85.0306 9.95017 86.3361 9.68896 87.8394 9.68896C89.406 9.68896 90.767 9.97392 91.9224 10.5438C93.0933 11.0979 94.0269 11.8895 94.7233 12.9185C95.4197 13.9316 95.8388 15.1189 95.9815 16.4804H92.5869C92.4606 15.6888 92.1751 15.0239 91.7324 14.4857C91.3051 13.9316 90.7591 13.52 90.0945 13.2508C89.4298 12.9659 88.6781 12.8235 87.8394 12.8235C86.9849 12.8235 86.2253 12.9738 85.5607 13.2747C84.896 13.5596 84.3422 13.9712 83.8991 14.5095C83.456 15.0477 83.1158 15.6809 82.8784 16.4091C82.6568 17.1374 82.5461 17.9448 82.5461 18.8312C82.5461 19.6861 82.6568 20.4777 82.8784 21.2058C83.1158 21.9341 83.4639 22.5752 83.9228 23.1293C84.3817 23.6676 84.9435 24.087 85.6081 24.3878C86.2886 24.6887 87.0719 24.839 87.9581 24.839C89.2558 24.839 90.3477 24.5224 91.2342 23.8892C92.136 23.2401 92.6815 22.3378 92.8715 21.1821H96.266C96.1078 22.4169 95.6888 23.5488 95.0078 24.5778C94.3278 25.6068 93.3942 26.43 92.2069 27.0474C91.0206 27.6648 89.6038 27.9735 87.9581 27.9735Z" fill="white"/>
<path d="M103.676 8.38928C99.9466 10.7808 97.4775 14.6789 97.4775 18.849C97.4775 23.8886 101.556 27.9737 106.587 27.9737C111.617 27.9737 115.695 23.8886 115.695 18.8491C115.695 14.9538 113.258 11.6267 109.83 10.319C109.17 10.0678 107.738 9.61593 106.595 9.71237C104.961 10.7528 102.971 12.8907 102.028 15.0211C103.43 13.3366 105.617 12.6031 107.554 12.915C110.407 13.3785 112.587 15.8587 112.587 18.8481C112.587 22.1686 109.9 24.8597 106.587 24.8597C104.76 24.8597 103.124 24.0426 102.024 22.7537C100.395 20.8471 99.9757 18.7795 100.305 16.7599C101.459 9.68803 109.839 5.65677 116.07 4.10979C114.037 5.18761 110.368 6.95927 107.803 8.88793C115.287 11.782 116.497 5.46375 120 2.63637C116.475 1.25927 103.696 0.750817 103.676 8.38928Z" fill="#159D22"/>
</g>
<defs>
<clipPath id="clip0_2532_464">
<rect width="120" height="26.3636" fill="white" transform="translate(0 1.81836)"/>
</clipPath>
</defs>
</svg>
