<svg width="22" height="18" viewBox="0 0 22 18" fill="none" xmlns="http://www.w3.org/2000/svg">
<g clip-path="url(#clip0_1689_2810)">
<path d="M16.6146 5.48062C16.2135 5.26569 15.6979 5.26569 15.2396 5.48062L12.0312 7.25375L9.85417 8.38211L6.70312 10.1552C6.30208 10.3702 5.78646 10.3702 5.32812 10.1552L2.86458 8.75823C2.46354 8.5433 2.17708 8.11345 2.17708 7.62987V4.9433C2.17708 4.51345 2.40625 4.0836 2.86458 3.81495L5.32812 2.47166C5.72917 2.25674 6.24479 2.25674 6.70312 2.47166L9.16667 3.86868C9.56771 4.0836 9.85417 4.51345 9.85417 4.99704V6.77017L12.0312 5.58808V3.76121C12.0312 3.33136 11.8021 2.90151 11.3437 2.63286L6.76042 0.107483C6.35937 -0.107442 5.84375 -0.107442 5.38542 0.107483L0.6875 2.68659C0.229167 2.90151 0 3.33136 0 3.76121V8.81196C0 9.24181 0.229167 9.67166 0.6875 9.94032L5.32812 12.4657C5.72917 12.6806 6.24479 12.6806 6.70312 12.4657L9.85417 10.7463L12.0312 9.5642L15.1823 7.8448C15.5833 7.62987 16.099 7.62987 16.5573 7.8448L19.0208 9.18808C19.4219 9.40301 19.7083 9.83286 19.7083 10.3164V13.003C19.7083 13.4329 19.4792 13.8627 19.0208 14.1314L16.6146 15.4746C16.2135 15.6896 15.6979 15.6896 15.2396 15.4746L12.776 14.1314C12.375 13.9164 12.0885 13.4866 12.0885 13.003V11.2836L9.91146 12.4657V14.2388C9.91146 14.6687 10.1406 15.0985 10.599 15.3672L15.2396 17.8926C15.6406 18.1075 16.1562 18.1075 16.6146 17.8926L21.2552 15.3672C21.6562 15.1523 21.9427 14.7224 21.9427 14.2388V9.13435C21.9427 8.7045 21.7135 8.27465 21.2552 8.00599L16.6146 5.48062Z" fill="black"/>
</g>
<defs>
<clipPath id="clip0_1689_2810">
<rect width="22" height="18" fill="white"/>
</clipPath>
</defs>
</svg>
